<svg width="512.00" height="512.00" xmlns="http://www.w3.org/2000/svg">
<rect x="0.000" y="0.000" width="20.00" height="20.00" style="fill:rgb(222,171,33); mix-blend-mode: screen;" />
<rect x="30.000" y="0.000" width="20.00" height="20.00" style="fill:rgb(220,170,35); mix-blend-mode: screen;" />
<rect x="60.000" y="0.000" width="20.00" height="20.00" style="fill:rgb(218,169,37); mix-blend-mode: screen;" />
<rect x="90.000" y="0.000" width="20.00" height="20.00" style="fill:rgb(216,168,39); mix-blend-mode: screen;" />
<rect x="120.000" y="0.000" width="20.00" height="20.00" style="fill:rgb(214,168,41); mix-blend-mode: screen;" />
<rect x="0.000" y="30.000" width="20.00" height="20.00" style="fill:rgb(213,167,42); mix-blend-mode: screen;" />
<rect x="30.000" y="30.000" width="20.00" height="20.00" style="fill:rgb(211,166,44); mix-blend-mode: screen;" />
<rect x="60.000" y="30.000" width="20.00" height="20.00" style="fill:rgb(209,165,46); mix-blend-mode: screen;" />
<rect x="90.000" y="30.000" width="20.00" height="20.00" style="fill:rgb(207,164,48); mix-blend-mode: screen;" />
<rect x="120.000" y="30.000" width="20.00" height="20.00" style="fill:rgb(205,163,50); mix-blend-mode: screen;" />
<rect x="0.000" y="60.000" width="20.00" height="20.00" style="fill:rgb(203,162,52); mix-blend-mode: screen;" />
<rect x="30.000" y="60.000" width="20.00" height="20.00" style="fill:rgb(201,162,54); mix-blend-mode: screen;" />
<rect x="60.000" y="60.000" width="20.00" height="20.00" style="fill:rgb(199,161,56); mix-blend-mode: screen;" />
<rect x="90.000" y="60.000" width="20.00" height="20.00" style="fill:rgb(198,160,58); mix-blend-mode: screen;" />
<rect x="120.000" y="60.000" width="20.00" height="20.00" style="fill:rgb(196,159,60); mix-blend-mode: screen;" />
<rect x="0.000" y="90.000" width="20.00" height="20.00" style="fill:rgb(194,158,61); mix-blend-mode: screen;" />
<rect x="30.000" y="90.000" width="20.00" height="20.00" style="fill:rgb(192,157,63); mix-blend-mode: screen;" />
<rect x="60.000" y="90.000" width="20.00" height="20.00" style="fill:rgb(190,156,65); mix-blend-mode: screen;" />
<rect x="90.000" y="90.000" width="20.00" height="20.00" style="fill:rgb(188,156,67); mix-blend-mode: screen;" />
<rect x="120.000" y="90.000" width="20.00" height="20.00" style="fill:rgb(186,155,69); mix-blend-mode: screen;" />
<rect x="0.000" y="120.000" width="20.00" height="20.00" style="fill:rgb(184,154,71); mix-blend-mode: screen;" />
<rect x="30.000" y="120.000" width="20.00" height="20.00" style="fill:rgb(183,153,73); mix-blend-mode: screen;" />
<rect x="60.000" y="120.000" width="20.00" height="20.00" style="fill:rgb(181,152,75); mix-blend-mode: screen;" />
<rect x="90.000" y="120.000" width="20.00" height="20.00" style="fill:rgb(179,151,77); mix-blend-mode: screen;" />
<rect x="120.000" y="120.000" width="20.00" height="20.00" style="fill:rgb(177,150,79); mix-blend-mode: screen;" />
<rect x="0.000" y="150.000" width="20.00" height="20.00" style="fill:rgb(175,149,81); mix-blend-mode: screen;" />
<rect x="30.000" y="150.000" width="20.00" height="20.00" style="fill:rgb(173,149,82); mix-blend-mode: screen;" />
<rect x="60.000" y="150.000" width="20.00" height="20.00" style="fill:rgb(171,148,84); mix-blend-mode: screen;" />
<rect x="90.000" y="150.000" width="20.00" height="20.00" style="fill:rgb(169,147,86); mix-blend-mode: screen;" />
<rect x="120.000" y="150.000" width="20.00" height="20.00" style="fill:rgb(167,146,88); mix-blend-mode: screen;" />
<rect x="0.000" y="180.000" width="20.00" height="20.00" style="fill:rgb(166,145,90); mix-blend-mode: screen;" />
<rect x="30.000" y="180.000" width="20.00" height="20.00" style="fill:rgb(164,144,92); mix-blend-mode: screen;" />
<rect x="60.000" y="180.000" width="20.00" height="20.00" style="fill:rgb(162,143,94); mix-blend-mode: screen;" />
<rect x="90.000" y="180.000" width="20.00" height="20.00" style="fill:rgb(160,143,96); mix-blend-mode: screen;" />
<rect x="120.000" y="180.000" width="20.00" height="20.00" style="fill:rgb(158,142,98); mix-blend-mode: screen;" />
<rect x="0.000" y="210.000" width="20.00" height="20.00" style="fill:rgb(156,141,99); mix-blend-mode: screen;" />
<rect x="30.000" y="210.000" width="20.00" height="20.00" style="fill:rgb(154,140,101); mix-blend-mode: screen;" />
<rect x="60.000" y="210.000" width="20.00" height="20.00" style="fill:rgb(152,139,103); mix-blend-mode: screen;" />
<rect x="90.000" y="210.000" width="20.00" height="20.00" style="fill:rgb(151,138,105); mix-blend-mode: screen;" />
<rect x="120.000" y="210.000" width="20.00" height="20.00" style="fill:rgb(149,137,107); mix-blend-mode: screen;" />
<rect x="0.000" y="240.000" width="20.00" height="20.00" style="fill:rgb(147,137,109); mix-blend-mode: screen;" />
<rect x="30.000" y="240.000" width="20.00" height="20.00" style="fill:rgb(145,136,111); mix-blend-mode: screen;" />
<rect x="60.000" y="240.000" width="20.00" height="20.00" style="fill:rgb(143,135,113); mix-blend-mode: screen;" />
<rect x="90.000" y="240.000" width="20.00" height="20.00" style="fill:rgb(141,134,115); mix-blend-mode: screen;" />
<rect x="120.000" y="240.000" width="20.00" height="20.00" style="fill:rgb(139,133,117); mix-blend-mode: screen;" />
<rect x="0.000" y="270.000" width="20.00" height="20.00" style="fill:rgb(137,132,119); mix-blend-mode: screen;" />
<rect x="30.000" y="270.000" width="20.00" height="20.00" style="fill:rgb(136,131,120); mix-blend-mode: screen;" />
<rect x="60.000" y="270.000" width="20.00" height="20.00" style="fill:rgb(134,131,122); mix-blend-mode: screen;" />
<rect x="90.000" y="270.000" width="20.00" height="20.00" style="fill:rgb(132,130,124); mix-blend-mode: screen;" />
<rect x="120.000" y="270.000" width="20.00" height="20.00" style="fill:rgb(130,129,126); mix-blend-mode: screen;" />
</svg>