<svg width="512.00" height="512.00" xmlns="http://www.w3.org/2000/svg">
<circle cx="128.000" cy="256.000" r="2.00" style="fill:rgb(255,0,0); mix-blend-mode: screen;" />
<circle cx="132.000" cy="262.273" r="2.00" style="fill:rgb(0,255,0); mix-blend-mode: screen;" />
<circle cx="136.000" cy="268.486" r="2.00" style="fill:rgb(0,0,255); mix-blend-mode: screen;" />
<circle cx="140.000" cy="274.578" r="2.00" style="fill:rgb(255,0,0); mix-blend-mode: screen;" />
<circle cx="144.000" cy="280.492" r="2.00" style="fill:rgb(0,255,0); mix-blend-mode: screen;" />
<circle cx="148.000" cy="286.169" r="2.00" style="fill:rgb(0,0,255); mix-blend-mode: screen;" />
<circle cx="152.000" cy="291.556" r="2.00" style="fill:rgb(255,0,0); mix-blend-mode: screen;" />
<circle cx="156.000" cy="296.601" r="2.00" style="fill:rgb(0,255,0); mix-blend-mode: screen;" />
<circle cx="160.000" cy="301.255" r="2.00" style="fill:rgb(0,0,255); mix-blend-mode: screen;" />
<circle cx="164.000" cy="305.473" r="2.00" style="fill:rgb(255,0,0); mix-blend-mode: screen;" />
<circle cx="168.000" cy="309.214" r="2.00" style="fill:rgb(0,255,0); mix-blend-mode: screen;" />
<circle cx="172.000" cy="312.443" r="2.00" style="fill:rgb(0,0,255); mix-blend-mode: screen;" />
<circle cx="176.000" cy="315.128" r="2.00" style="fill:rgb(255,0,0); mix-blend-mode: screen;" />
<circle cx="180.000" cy="317.244" r="2.00" style="fill:rgb(0,255,0); mix-blend-mode: screen;" />
<circle cx="184.000" cy="318.770" r="2.00" style="fill:rgb(0,0,255); mix-blend-mode: screen;" />
<circle cx="188.000" cy="319.692" r="2.00" style="fill:rgb(255,0,0); mix-blend-mode: screen;" />
<circle cx="192.000" cy="320.000" r="2.00" style="fill:rgb(0,255,0); mix-blend-mode: screen;" />
<circle cx="196.000" cy="319.692" r="2.00" style="fill:rgb(0,0,255); mix-blend-mode: screen;" />
<circle cx="200.000" cy="318.770" r="2.00" style="fill:rgb(255,0,0); mix-blend-mode: screen;" />
<circle cx="204.000" cy="317.244" r="2.00" style="fill:rgb(0,255,0); mix-blend-mode: screen;" />
<circle cx="208.000" cy="315.128" r="2.00" style="fill:rgb(0,0,255); mix-blend-mode: screen;" />
<circle cx="212.000" cy="312.443" r="2.00" style="fill:rgb(255,0,0); mix-blend-mode: screen;" />
<circle cx="216.000" cy="309.214" r="2.00" style="fill:rgb(0,255,0); mix-blend-mode: screen;" />
<circle cx="220.000" cy="305.473" r="2.00" style="fill:rgb(0,0,255); mix-blend-mode: screen;" />
<circle cx="224.000" cy="301.255" r="2.00" style="fill:rgb(255,0,0); mix-blend-mode: screen;" />
<circle cx="228.000" cy="296.601" r="2.00" style="fill:rgb(0,255,0); mix-blend-mode: screen;" />
<circle cx="232.000" cy="291.556" r="2.00" style="fill:rgb(0,0,255); mix-blend-mode: screen;" />
<circle cx="236.000" cy="286.169" r="2.00" style="fill:rgb(255,0,0); mix-blend-mode: screen;" />
<circle cx="240.000" cy="280.492" r="2.00" style="fill:rgb(0,255,0); mix-blend-mode: screen;" />
<circle cx="244.000" cy="274.578" r="2.00" style="fill:rgb(0,0,255); mix-blend-mode: screen;" />
<circle cx="248.000" cy="268.486" r="2.00" style="fill:rgb(255,0,0); mix-blend-mode: screen;" />
<circle cx="252.000" cy="262.273" r="2.00" style="fill:rgb(0,255,0); mix-blend-mode: screen;" />
<circle cx="256.000" cy="256.000" r="2.00" style="fill:rgb(0,0,255); mix-blend-mode: screen;" />
<circle cx="260.000" cy="249.727" r="2.00" style="fill:rgb(255,0,0); mix-blend-mode: screen;" />
<circle cx="264.000" cy="243.514" r="2.00" style="fill:rgb(0,255,0); mix-blend-mode: screen;" />
<circle cx="268.000" cy="237.422" r="2.00" style="fill:rgb(0,0,255); mix-blend-mode: screen;" />
<circle cx="272.000" cy="231.508" r="2.00" style="fill:rgb(255,0,0); mix-blend-mode: screen;" />
<circle cx="276.000" cy="225.831" r="2.00" style="fill:rgb(0,255,0); mix-blend-mode: screen;" />
<circle cx="280.000" cy="220.444" r="2.00" style="fill:rgb(0,0,255); mix-blend-mode: screen;" />
<circle cx="284.000" cy="215.399" r="2.00" style="fill:rgb(255,0,0); mix-blend-mode: screen;" />
<circle cx="288.000" cy="210.745" r="2.00" style="fill:rgb(0,255,0); mix-blend-mode: screen;" />
<circle cx="292.000" cy="206.527" r="2.00" style="fill:rgb(0,0,255); mix-blend-mode: screen;" />
<circle cx="296.000" cy="202.786" r="2.00" style="fill:rgb(255,0,0); mix-blend-mode: screen;" />
<circle cx="300.000" cy="199.557" r="2.00" style="fill:rgb(0,255,0); mix-blend-mode: screen;" />
<circle cx="304.000" cy="196.872" r="2.00" style="fill:rgb(0,0,255); mix-blend-mode: screen;" />
<circle cx="308.000" cy="194.756" r="2.00" style="fill:rgb(255,0,0); mix-blend-mode: screen;" />
<circle cx="312.000" cy="193.230" r="2.00" style="fill:rgb(0,255,0); mix-blend-mode: screen;" />
<circle cx="316.000" cy="192.308" r="2.00" style="fill:rgb(0,0,255); mix-blend-mode: screen;" />
<circle cx="320.000" cy="192.000" r="2.00" style="fill:rgb(255,0,0); mix-blend-mode: screen;" />
<circle cx="324.000" cy="192.308" r="2.00" style="fill:rgb(0,255,0); mix-blend-mode: screen;" />
<circle cx="328.000" cy="193.230" r="2.00" style="fill:rgb(0,0,255); mix-blend-mode: screen;" />
<circle cx="332.000" cy="194.756" r="2.00" style="fill:rgb(255,0,0); mix-blend-mode: screen;" />
<circle cx="336.000" cy="196.872" r="2.00" style="fill:rgb(0,255,0); mix-blend-mode: screen;" />
<circle cx="340.000" cy="199.557" r="2.00" style="fill:rgb(0,0,255); mix-blend-mode: screen;" />
<circle cx="344.000" cy="202.786" r="2.00" style="fill:rgb(255,0,0); mix-blend-mode: screen;" />
<circle cx="348.000" cy="206.527" r="2.00" style="fill:rgb(0,255,0); mix-blend-mode: screen;" />
<circle cx="352.000" cy="210.745" r="2.00" style="fill:rgb(0,0,255); mix-blend-mode: screen;" />
<circle cx="356.000" cy="215.399" r="2.00" style="fill:rgb(255,0,0); mix-blend-mode: screen;" />
<circle cx="360.000" cy="220.444" r="2.00" style="fill:rgb(0,255,0); mix-blend-mode: screen;" />
<circle cx="364.000" cy="225.831" r="2.00" style="fill:rgb(0,0,255); mix-blend-mode: screen;" />
<circle cx="368.000" cy="231.508" r="2.00" style="fill:rgb(255,0,0); mix-blend-mode: screen;" />
<circle cx="372.000" cy="237.422" r="2.00" style="fill:rgb(0,255,0); mix-blend-mode: screen;" />
<circle cx="376.000" cy="243.514" r="2.00" style="fill:rgb(0,0,255); mix-blend-mode: screen;" />
<circle cx="380.000" cy="249.727" r="2.00" style="fill:rgb(255,0,0); mix-blend-mode: screen;" />
</svg>