<svg width="512.00" height="512.00" xmlns="http://www.w3.org/2000/svg">
<circle cx="128.000" cy="160.000" r="32.00" style="fill:rgb(0,0,0); mix-blend-mode: screen;" />
<circle cx="144.000" cy="184.492" r="32.00" style="fill:rgb(0,0,16); mix-blend-mode: screen;" />
<circle cx="160.000" cy="205.255" r="32.00" style="fill:rgb(0,0,32); mix-blend-mode: screen;" />
<circle cx="176.000" cy="219.128" r="32.00" style="fill:rgb(0,0,48); mix-blend-mode: screen;" />
<circle cx="192.000" cy="224.000" r="32.00" style="fill:rgb(0,0,64); mix-blend-mode: screen;" />
<circle cx="208.000" cy="219.128" r="32.00" style="fill:rgb(0,0,80); mix-blend-mode: screen;" />
<circle cx="224.000" cy="205.255" r="32.00" style="fill:rgb(0,0,96); mix-blend-mode: screen;" />
<circle cx="240.000" cy="184.492" r="32.00" style="fill:rgb(0,0,112); mix-blend-mode: screen;" />
<circle cx="256.000" cy="160.000" r="32.00" style="fill:rgb(0,0,127); mix-blend-mode: screen;" />
<circle cx="272.000" cy="135.508" r="32.00" style="fill:rgb(0,0,143); mix-blend-mode: screen;" />
<circle cx="288.000" cy="114.745" r="32.00" style="fill:rgb(0,0,159); mix-blend-mode: screen;" />
<circle cx="304.000" cy="100.872" r="32.00" style="fill:rgb(0,0,175); mix-blend-mode: screen;" />
<circle cx="320.000" cy="96.000" r="32.00" style="fill:rgb(0,0,191); mix-blend-mode: screen;" />
<circle cx="336.000" cy="100.872" r="32.00" style="fill:rgb(0,0,207); mix-blend-mode: screen;" />
<circle cx="352.000" cy="114.745" r="32.00" style="fill:rgb(0,0,223); mix-blend-mode: screen;" />
<circle cx="368.000" cy="135.508" r="32.00" style="fill:rgb(0,0,239); mix-blend-mode: screen;" />
<circle cx="384.000" cy="160.000" r="32.00" style="fill:rgb(0,0,255); mix-blend-mode: screen;" />
<circle cx="128.000" cy="224.000" r="32.00" style="fill:rgb(0,0,0); mix-blend-mode: screen;" />
<circle cx="144.000" cy="248.492" r="32.00" style="fill:rgb(0,16,0); mix-blend-mode: screen;" />
<circle cx="160.000" cy="269.255" r="32.00" style="fill:rgb(0,32,0); mix-blend-mode: screen;" />
<circle cx="176.000" cy="283.128" r="32.00" style="fill:rgb(0,48,0); mix-blend-mode: screen;" />
<circle cx="192.000" cy="288.000" r="32.00" style="fill:rgb(0,64,0); mix-blend-mode: screen;" />
<circle cx="208.000" cy="283.128" r="32.00" style="fill:rgb(0,80,0); mix-blend-mode: screen;" />
<circle cx="224.000" cy="269.255" r="32.00" style="fill:rgb(0,96,0); mix-blend-mode: screen;" />
<circle cx="240.000" cy="248.492" r="32.00" style="fill:rgb(0,112,0); mix-blend-mode: screen;" />
<circle cx="256.000" cy="224.000" r="32.00" style="fill:rgb(0,127,0); mix-blend-mode: screen;" />
<circle cx="272.000" cy="199.508" r="32.00" style="fill:rgb(0,143,0); mix-blend-mode: screen;" />
<circle cx="288.000" cy="178.745" r="32.00" style="fill:rgb(0,159,0); mix-blend-mode: screen;" />
<circle cx="304.000" cy="164.872" r="32.00" style="fill:rgb(0,175,0); mix-blend-mode: screen;" />
<circle cx="320.000" cy="160.000" r="32.00" style="fill:rgb(0,191,0); mix-blend-mode: screen;" />
<circle cx="336.000" cy="164.872" r="32.00" style="fill:rgb(0,207,0); mix-blend-mode: screen;" />
<circle cx="352.000" cy="178.745" r="32.00" style="fill:rgb(0,223,0); mix-blend-mode: screen;" />
<circle cx="368.000" cy="199.508" r="32.00" style="fill:rgb(0,239,0); mix-blend-mode: screen;" />
<circle cx="384.000" cy="224.000" r="32.00" style="fill:rgb(0,255,0); mix-blend-mode: screen;" />
<circle cx="128.000" cy="288.000" r="32.00" style="fill:rgb(0,0,0); mix-blend-mode: screen;" />
<circle cx="144.000" cy="312.492" r="32.00" style="fill:rgb(16,0,0); mix-blend-mode: screen;" />
<circle cx="160.000" cy="333.255" r="32.00" style="fill:rgb(32,0,0); mix-blend-mode: screen;" />
<circle cx="176.000" cy="347.128" r="32.00" style="fill:rgb(48,0,0); mix-blend-mode: screen;" />
<circle cx="192.000" cy="352.000" r="32.00" style="fill:rgb(64,0,0); mix-blend-mode: screen;" />
<circle cx="208.000" cy="347.128" r="32.00" style="fill:rgb(80,0,0); mix-blend-mode: screen;" />
<circle cx="224.000" cy="333.255" r="32.00" style="fill:rgb(96,0,0); mix-blend-mode: screen;" />
<circle cx="240.000" cy="312.492" r="32.00" style="fill:rgb(112,0,0); mix-blend-mode: screen;" />
<circle cx="256.000" cy="288.000" r="32.00" style="fill:rgb(127,0,0); mix-blend-mode: screen;" />
<circle cx="272.000" cy="263.508" r="32.00" style="fill:rgb(143,0,0); mix-blend-mode: screen;" />
<circle cx="288.000" cy="242.745" r="32.00" style="fill:rgb(159,0,0); mix-blend-mode: screen;" />
<circle cx="304.000" cy="228.872" r="32.00" style="fill:rgb(175,0,0); mix-blend-mode: screen;" />
<circle cx="320.000" cy="224.000" r="32.00" style="fill:rgb(191,0,0); mix-blend-mode: screen;" />
<circle cx="336.000" cy="228.872" r="32.00" style="fill:rgb(207,0,0); mix-blend-mode: screen;" />
<circle cx="352.000" cy="242.745" r="32.00" style="fill:rgb(223,0,0); mix-blend-mode: screen;" />
<circle cx="368.000" cy="263.508" r="32.00" style="fill:rgb(239,0,0); mix-blend-mode: screen;" />
<circle cx="384.000" cy="288.000" r="32.00" style="fill:rgb(255,0,0); mix-blend-mode: screen;" />
</svg>