<svg width="512.00" height="512.00" xmlns="http://www.w3.org/2000/svg">
<circle cx="128.000" cy="256.000" r="2.00" style="fill:rgb(255,0,0); mix-blend-mode: screen;" />
<circle cx="133.120" cy="264.021" r="2.00" style="fill:rgb(0,255,0); mix-blend-mode: screen;" />
<circle cx="138.240" cy="271.916" r="2.00" style="fill:rgb(0,0,255); mix-blend-mode: screen;" />
<circle cx="143.360" cy="279.560" r="2.00" style="fill:rgb(255,0,0); mix-blend-mode: screen;" />
<circle cx="148.480" cy="286.832" r="2.00" style="fill:rgb(0,255,0); mix-blend-mode: screen;" />
<circle cx="153.600" cy="293.618" r="2.00" style="fill:rgb(0,0,255); mix-blend-mode: screen;" />
<circle cx="158.720" cy="299.811" r="2.00" style="fill:rgb(255,0,0); mix-blend-mode: screen;" />
<circle cx="163.840" cy="305.313" r="2.00" style="fill:rgb(0,255,0); mix-blend-mode: screen;" />
<circle cx="168.960" cy="310.037" r="2.00" style="fill:rgb(0,0,255); mix-blend-mode: screen;" />
<circle cx="174.080" cy="313.909" r="2.00" style="fill:rgb(255,0,0); mix-blend-mode: screen;" />
<circle cx="179.200" cy="316.868" r="2.00" style="fill:rgb(0,255,0); mix-blend-mode: screen;" />
<circle cx="184.320" cy="318.866" r="2.00" style="fill:rgb(0,0,255); mix-blend-mode: screen;" />
<circle cx="189.440" cy="319.874" r="2.00" style="fill:rgb(255,0,0); mix-blend-mode: screen;" />
<circle cx="194.560" cy="319.874" r="2.00" style="fill:rgb(0,255,0); mix-blend-mode: screen;" />
<circle cx="199.680" cy="318.866" r="2.00" style="fill:rgb(0,0,255); mix-blend-mode: screen;" />
<circle cx="204.800" cy="316.868" r="2.00" style="fill:rgb(255,0,0); mix-blend-mode: screen;" />
<circle cx="209.920" cy="313.909" r="2.00" style="fill:rgb(0,255,0); mix-blend-mode: screen;" />
<circle cx="215.040" cy="310.037" r="2.00" style="fill:rgb(0,0,255); mix-blend-mode: screen;" />
<circle cx="220.160" cy="305.313" r="2.00" style="fill:rgb(255,0,0); mix-blend-mode: screen;" />
<circle cx="225.280" cy="299.811" r="2.00" style="fill:rgb(0,255,0); mix-blend-mode: screen;" />
<circle cx="230.400" cy="293.618" r="2.00" style="fill:rgb(0,0,255); mix-blend-mode: screen;" />
<circle cx="235.520" cy="286.832" r="2.00" style="fill:rgb(255,0,0); mix-blend-mode: screen;" />
<circle cx="240.640" cy="279.560" r="2.00" style="fill:rgb(0,255,0); mix-blend-mode: screen;" />
<circle cx="245.760" cy="271.916" r="2.00" style="fill:rgb(0,0,255); mix-blend-mode: screen;" />
<circle cx="250.880" cy="264.021" r="2.00" style="fill:rgb(255,0,0); mix-blend-mode: screen;" />
<circle cx="256.000" cy="256.000" r="2.00" style="fill:rgb(0,255,0); mix-blend-mode: screen;" />
<circle cx="261.120" cy="247.979" r="2.00" style="fill:rgb(0,0,255); mix-blend-mode: screen;" />
<circle cx="266.240" cy="240.084" r="2.00" style="fill:rgb(255,0,0); mix-blend-mode: screen;" />
<circle cx="271.360" cy="232.440" r="2.00" style="fill:rgb(0,255,0); mix-blend-mode: screen;" />
<circle cx="276.480" cy="225.168" r="2.00" style="fill:rgb(0,0,255); mix-blend-mode: screen;" />
<circle cx="281.600" cy="218.382" r="2.00" style="fill:rgb(255,0,0); mix-blend-mode: screen;" />
<circle cx="286.720" cy="212.189" r="2.00" style="fill:rgb(0,255,0); mix-blend-mode: screen;" />
<circle cx="291.840" cy="206.687" r="2.00" style="fill:rgb(0,0,255); mix-blend-mode: screen;" />
<circle cx="296.960" cy="201.963" r="2.00" style="fill:rgb(255,0,0); mix-blend-mode: screen;" />
<circle cx="302.080" cy="198.091" r="2.00" style="fill:rgb(0,255,0); mix-blend-mode: screen;" />
<circle cx="307.200" cy="195.132" r="2.00" style="fill:rgb(0,0,255); mix-blend-mode: screen;" />
<circle cx="312.320" cy="193.134" r="2.00" style="fill:rgb(255,0,0); mix-blend-mode: screen;" />
<circle cx="317.440" cy="192.126" r="2.00" style="fill:rgb(0,255,0); mix-blend-mode: screen;" />
<circle cx="322.560" cy="192.126" r="2.00" style="fill:rgb(0,0,255); mix-blend-mode: screen;" />
<circle cx="327.680" cy="193.134" r="2.00" style="fill:rgb(255,0,0); mix-blend-mode: screen;" />
<circle cx="332.800" cy="195.132" r="2.00" style="fill:rgb(0,255,0); mix-blend-mode: screen;" />
<circle cx="337.920" cy="198.091" r="2.00" style="fill:rgb(0,0,255); mix-blend-mode: screen;" />
<circle cx="343.040" cy="201.963" r="2.00" style="fill:rgb(255,0,0); mix-blend-mode: screen;" />
<circle cx="348.160" cy="206.687" r="2.00" style="fill:rgb(0,255,0); mix-blend-mode: screen;" />
<circle cx="353.280" cy="212.189" r="2.00" style="fill:rgb(0,0,255); mix-blend-mode: screen;" />
<circle cx="358.400" cy="218.382" r="2.00" style="fill:rgb(255,0,0); mix-blend-mode: screen;" />
<circle cx="363.520" cy="225.168" r="2.00" style="fill:rgb(0,255,0); mix-blend-mode: screen;" />
<circle cx="368.640" cy="232.440" r="2.00" style="fill:rgb(0,0,255); mix-blend-mode: screen;" />
<circle cx="373.760" cy="240.084" r="2.00" style="fill:rgb(255,0,0); mix-blend-mode: screen;" />
<circle cx="378.880" cy="247.979" r="2.00" style="fill:rgb(0,255,0); mix-blend-mode: screen;" />
</svg>