<svg width="512.00" height="512.00" xmlns="http://www.w3.org/2000/svg">
<circle cx="128.000" cy="64.000" r="4.00" style="fill:rgb(0,0,0); mix-blend-mode: screen;" />
<circle cx="136.000" cy="70.243" r="4.00" style="fill:rgb(0,0,8); mix-blend-mode: screen;" />
<circle cx="144.000" cy="76.246" r="4.00" style="fill:rgb(0,0,16); mix-blend-mode: screen;" />
<circle cx="152.000" cy="81.778" r="4.00" style="fill:rgb(0,0,24); mix-blend-mode: screen;" />
<circle cx="160.000" cy="86.627" r="4.00" style="fill:rgb(0,0,32); mix-blend-mode: screen;" />
<circle cx="168.000" cy="90.607" r="4.00" style="fill:rgb(0,0,40); mix-blend-mode: screen;" />
<circle cx="176.000" cy="93.564" r="4.00" style="fill:rgb(0,0,48); mix-blend-mode: screen;" />
<circle cx="184.000" cy="95.385" r="4.00" style="fill:rgb(0,0,56); mix-blend-mode: screen;" />
<circle cx="192.000" cy="96.000" r="4.00" style="fill:rgb(0,0,64); mix-blend-mode: screen;" />
<circle cx="200.000" cy="95.385" r="4.00" style="fill:rgb(0,0,72); mix-blend-mode: screen;" />
<circle cx="208.000" cy="93.564" r="4.00" style="fill:rgb(0,0,80); mix-blend-mode: screen;" />
<circle cx="216.000" cy="90.607" r="4.00" style="fill:rgb(0,0,88); mix-blend-mode: screen;" />
<circle cx="224.000" cy="86.627" r="4.00" style="fill:rgb(0,0,96); mix-blend-mode: screen;" />
<circle cx="232.000" cy="81.778" r="4.00" style="fill:rgb(0,0,104); mix-blend-mode: screen;" />
<circle cx="240.000" cy="76.246" r="4.00" style="fill:rgb(0,0,112); mix-blend-mode: screen;" />
<circle cx="248.000" cy="70.243" r="4.00" style="fill:rgb(0,0,120); mix-blend-mode: screen;" />
<circle cx="256.000" cy="64.000" r="4.00" style="fill:rgb(0,0,127); mix-blend-mode: screen;" />
<circle cx="264.000" cy="57.757" r="4.00" style="fill:rgb(0,0,135); mix-blend-mode: screen;" />
<circle cx="272.000" cy="51.754" r="4.00" style="fill:rgb(0,0,143); mix-blend-mode: screen;" />
<circle cx="280.000" cy="46.222" r="4.00" style="fill:rgb(0,0,151); mix-blend-mode: screen;" />
<circle cx="288.000" cy="41.373" r="4.00" style="fill:rgb(0,0,159); mix-blend-mode: screen;" />
<circle cx="296.000" cy="37.393" r="4.00" style="fill:rgb(0,0,167); mix-blend-mode: screen;" />
<circle cx="304.000" cy="34.436" r="4.00" style="fill:rgb(0,0,175); mix-blend-mode: screen;" />
<circle cx="312.000" cy="32.615" r="4.00" style="fill:rgb(0,0,183); mix-blend-mode: screen;" />
<circle cx="320.000" cy="32.000" r="4.00" style="fill:rgb(0,0,191); mix-blend-mode: screen;" />
<circle cx="328.000" cy="32.615" r="4.00" style="fill:rgb(0,0,199); mix-blend-mode: screen;" />
<circle cx="336.000" cy="34.436" r="4.00" style="fill:rgb(0,0,207); mix-blend-mode: screen;" />
<circle cx="344.000" cy="37.393" r="4.00" style="fill:rgb(0,0,215); mix-blend-mode: screen;" />
<circle cx="352.000" cy="41.373" r="4.00" style="fill:rgb(0,0,223); mix-blend-mode: screen;" />
<circle cx="360.000" cy="46.222" r="4.00" style="fill:rgb(0,0,231); mix-blend-mode: screen;" />
<circle cx="368.000" cy="51.754" r="4.00" style="fill:rgb(0,0,239); mix-blend-mode: screen;" />
<circle cx="376.000" cy="57.757" r="4.00" style="fill:rgb(0,0,247); mix-blend-mode: screen;" />
<circle cx="384.000" cy="64.000" r="4.00" style="fill:rgb(0,0,255); mix-blend-mode: screen;" />
<circle cx="128.000" cy="192.000" r="4.00" style="fill:rgb(0,0,0); mix-blend-mode: screen;" />
<circle cx="136.000" cy="198.243" r="4.00" style="fill:rgb(0,8,0); mix-blend-mode: screen;" />
<circle cx="144.000" cy="204.246" r="4.00" style="fill:rgb(0,16,0); mix-blend-mode: screen;" />
<circle cx="152.000" cy="209.778" r="4.00" style="fill:rgb(0,24,0); mix-blend-mode: screen;" />
<circle cx="160.000" cy="214.627" r="4.00" style="fill:rgb(0,32,0); mix-blend-mode: screen;" />
<circle cx="168.000" cy="218.607" r="4.00" style="fill:rgb(0,40,0); mix-blend-mode: screen;" />
<circle cx="176.000" cy="221.564" r="4.00" style="fill:rgb(0,48,0); mix-blend-mode: screen;" />
<circle cx="184.000" cy="223.385" r="4.00" style="fill:rgb(0,56,0); mix-blend-mode: screen;" />
<circle cx="192.000" cy="224.000" r="4.00" style="fill:rgb(0,64,0); mix-blend-mode: screen;" />
<circle cx="200.000" cy="223.385" r="4.00" style="fill:rgb(0,72,0); mix-blend-mode: screen;" />
<circle cx="208.000" cy="221.564" r="4.00" style="fill:rgb(0,80,0); mix-blend-mode: screen;" />
<circle cx="216.000" cy="218.607" r="4.00" style="fill:rgb(0,88,0); mix-blend-mode: screen;" />
<circle cx="224.000" cy="214.627" r="4.00" style="fill:rgb(0,96,0); mix-blend-mode: screen;" />
<circle cx="232.000" cy="209.778" r="4.00" style="fill:rgb(0,104,0); mix-blend-mode: screen;" />
<circle cx="240.000" cy="204.246" r="4.00" style="fill:rgb(0,112,0); mix-blend-mode: screen;" />
<circle cx="248.000" cy="198.243" r="4.00" style="fill:rgb(0,120,0); mix-blend-mode: screen;" />
<circle cx="256.000" cy="192.000" r="4.00" style="fill:rgb(0,127,0); mix-blend-mode: screen;" />
<circle cx="264.000" cy="185.757" r="4.00" style="fill:rgb(0,135,0); mix-blend-mode: screen;" />
<circle cx="272.000" cy="179.754" r="4.00" style="fill:rgb(0,143,0); mix-blend-mode: screen;" />
<circle cx="280.000" cy="174.222" r="4.00" style="fill:rgb(0,151,0); mix-blend-mode: screen;" />
<circle cx="288.000" cy="169.373" r="4.00" style="fill:rgb(0,159,0); mix-blend-mode: screen;" />
<circle cx="296.000" cy="165.393" r="4.00" style="fill:rgb(0,167,0); mix-blend-mode: screen;" />
<circle cx="304.000" cy="162.436" r="4.00" style="fill:rgb(0,175,0); mix-blend-mode: screen;" />
<circle cx="312.000" cy="160.615" r="4.00" style="fill:rgb(0,183,0); mix-blend-mode: screen;" />
<circle cx="320.000" cy="160.000" r="4.00" style="fill:rgb(0,191,0); mix-blend-mode: screen;" />
<circle cx="328.000" cy="160.615" r="4.00" style="fill:rgb(0,199,0); mix-blend-mode: screen;" />
<circle cx="336.000" cy="162.436" r="4.00" style="fill:rgb(0,207,0); mix-blend-mode: screen;" />
<circle cx="344.000" cy="165.393" r="4.00" style="fill:rgb(0,215,0); mix-blend-mode: screen;" />
<circle cx="352.000" cy="169.373" r="4.00" style="fill:rgb(0,223,0); mix-blend-mode: screen;" />
<circle cx="360.000" cy="174.222" r="4.00" style="fill:rgb(0,231,0); mix-blend-mode: screen;" />
<circle cx="368.000" cy="179.754" r="4.00" style="fill:rgb(0,239,0); mix-blend-mode: screen;" />
<circle cx="376.000" cy="185.757" r="4.00" style="fill:rgb(0,247,0); mix-blend-mode: screen;" />
<circle cx="384.000" cy="192.000" r="4.00" style="fill:rgb(0,255,0); mix-blend-mode: screen;" />
<circle cx="128.000" cy="320.000" r="4.00" style="fill:rgb(0,0,0); mix-blend-mode: screen;" />
<circle cx="136.000" cy="326.243" r="4.00" style="fill:rgb(8,0,0); mix-blend-mode: screen;" />
<circle cx="144.000" cy="332.246" r="4.00" style="fill:rgb(16,0,0); mix-blend-mode: screen;" />
<circle cx="152.000" cy="337.778" r="4.00" style="fill:rgb(24,0,0); mix-blend-mode: screen;" />
<circle cx="160.000" cy="342.627" r="4.00" style="fill:rgb(32,0,0); mix-blend-mode: screen;" />
<circle cx="168.000" cy="346.607" r="4.00" style="fill:rgb(40,0,0); mix-blend-mode: screen;" />
<circle cx="176.000" cy="349.564" r="4.00" style="fill:rgb(48,0,0); mix-blend-mode: screen;" />
<circle cx="184.000" cy="351.385" r="4.00" style="fill:rgb(56,0,0); mix-blend-mode: screen;" />
<circle cx="192.000" cy="352.000" r="4.00" style="fill:rgb(64,0,0); mix-blend-mode: screen;" />
<circle cx="200.000" cy="351.385" r="4.00" style="fill:rgb(72,0,0); mix-blend-mode: screen;" />
<circle cx="208.000" cy="349.564" r="4.00" style="fill:rgb(80,0,0); mix-blend-mode: screen;" />
<circle cx="216.000" cy="346.607" r="4.00" style="fill:rgb(88,0,0); mix-blend-mode: screen;" />
<circle cx="224.000" cy="342.627" r="4.00" style="fill:rgb(96,0,0); mix-blend-mode: screen;" />
<circle cx="232.000" cy="337.778" r="4.00" style="fill:rgb(104,0,0); mix-blend-mode: screen;" />
<circle cx="240.000" cy="332.246" r="4.00" style="fill:rgb(112,0,0); mix-blend-mode: screen;" />
<circle cx="248.000" cy="326.243" r="4.00" style="fill:rgb(120,0,0); mix-blend-mode: screen;" />
<circle cx="256.000" cy="320.000" r="4.00" style="fill:rgb(127,0,0); mix-blend-mode: screen;" />
<circle cx="264.000" cy="313.757" r="4.00" style="fill:rgb(135,0,0); mix-blend-mode: screen;" />
<circle cx="272.000" cy="307.754" r="4.00" style="fill:rgb(143,0,0); mix-blend-mode: screen;" />
<circle cx="280.000" cy="302.222" r="4.00" style="fill:rgb(151,0,0); mix-blend-mode: screen;" />
<circle cx="288.000" cy="297.373" r="4.00" style="fill:rgb(159,0,0); mix-blend-mode: screen;" />
<circle cx="296.000" cy="293.393" r="4.00" style="fill:rgb(167,0,0); mix-blend-mode: screen;" />
<circle cx="304.000" cy="290.436" r="4.00" style="fill:rgb(175,0,0); mix-blend-mode: screen;" />
<circle cx="312.000" cy="288.615" r="4.00" style="fill:rgb(183,0,0); mix-blend-mode: screen;" />
<circle cx="320.000" cy="288.000" r="4.00" style="fill:rgb(191,0,0); mix-blend-mode: screen;" />
<circle cx="328.000" cy="288.615" r="4.00" style="fill:rgb(199,0,0); mix-blend-mode: screen;" />
<circle cx="336.000" cy="290.436" r="4.00" style="fill:rgb(207,0,0); mix-blend-mode: screen;" />
<circle cx="344.000" cy="293.393" r="4.00" style="fill:rgb(215,0,0); mix-blend-mode: screen;" />
<circle cx="352.000" cy="297.373" r="4.00" style="fill:rgb(223,0,0); mix-blend-mode: screen;" />
<circle cx="360.000" cy="302.222" r="4.00" style="fill:rgb(231,0,0); mix-blend-mode: screen;" />
<circle cx="368.000" cy="307.754" r="4.00" style="fill:rgb(239,0,0); mix-blend-mode: screen;" />
<circle cx="376.000" cy="313.757" r="4.00" style="fill:rgb(247,0,0); mix-blend-mode: screen;" />
<circle cx="384.000" cy="320.000" r="4.00" style="fill:rgb(255,0,0); mix-blend-mode: screen;" />
</svg>