<svg width="1024.00" height="1024.00" xmlns="http://www.w3.org/2000/svg">
<rect x="768.000" y="512.000" width="20.00" height="20.00" style="fill:rgb(0,80,0); mix-blend-mode: screen;" />
<rect x="748.513" y="609.967" width="20.00" height="20.00" style="fill:rgb(0,90,0); mix-blend-mode: screen;" />
<rect x="693.019" y="693.019" width="20.00" height="20.00" style="fill:rgb(0,100,0); mix-blend-mode: screen;" />
<rect x="609.967" y="748.513" width="20.00" height="20.00" style="fill:rgb(0,110,0); mix-blend-mode: screen;" />
<rect x="512.000" y="768.000" width="20.00" height="20.00" style="fill:rgb(0,120,0); mix-blend-mode: screen;" />
<rect x="414.033" y="748.513" width="20.00" height="20.00" style="fill:rgb(0,130,0); mix-blend-mode: screen;" />
<rect x="330.981" y="693.019" width="20.00" height="20.00" style="fill:rgb(0,140,0); mix-blend-mode: screen;" />
<rect x="275.487" y="609.967" width="20.00" height="20.00" style="fill:rgb(0,150,0); mix-blend-mode: screen;" />
<rect x="256.000" y="512.000" width="20.00" height="20.00" style="fill:rgb(0,160,0); mix-blend-mode: screen;" />
<rect x="275.487" y="414.033" width="20.00" height="20.00" style="fill:rgb(0,170,0); mix-blend-mode: screen;" />
<rect x="330.981" y="330.981" width="20.00" height="20.00" style="fill:rgb(0,180,0); mix-blend-mode: screen;" />
<rect x="414.033" y="275.487" width="20.00" height="20.00" style="fill:rgb(0,190,0); mix-blend-mode: screen;" />
<rect x="512.000" y="256.000" width="20.00" height="20.00" style="fill:rgb(0,200,0); mix-blend-mode: screen;" />
<rect x="609.967" y="275.487" width="20.00" height="20.00" style="fill:rgb(0,210,0); mix-blend-mode: screen;" />
<rect x="693.019" y="330.981" width="20.00" height="20.00" style="fill:rgb(0,220,0); mix-blend-mode: screen;" />
<rect x="748.513" y="414.033" width="20.00" height="20.00" style="fill:rgb(0,230,0); mix-blend-mode: screen;" />
<rect x="768.000" y="512.000" width="20.00" height="20.00" style="fill:rgb(0,240,0); mix-blend-mode: screen;" />
</svg>