<svg width="1024.00" height="1024.00" xmlns="http://www.w3.org/2000/svg">
<rect x="0.000" y="0.000" width="20.00" height="20.00" style="fill:rgb(0,80,0); mix-blend-mode: screen;" />
<rect x="30.000" y="0.000" width="20.00" height="20.00" style="fill:rgb(0,90,0); mix-blend-mode: screen;" />
<rect x="60.000" y="0.000" width="20.00" height="20.00" style="fill:rgb(0,100,0); mix-blend-mode: screen;" />
<rect x="90.000" y="0.000" width="20.00" height="20.00" style="fill:rgb(0,110,0); mix-blend-mode: screen;" />
<rect x="120.000" y="0.000" width="20.00" height="20.00" style="fill:rgb(0,120,0); mix-blend-mode: screen;" />
<rect x="0.000" y="30.000" width="20.00" height="20.00" style="fill:rgb(0,130,0); mix-blend-mode: screen;" />
<rect x="30.000" y="30.000" width="20.00" height="20.00" style="fill:rgb(0,140,0); mix-blend-mode: screen;" />
<rect x="60.000" y="30.000" width="20.00" height="20.00" style="fill:rgb(0,150,0); mix-blend-mode: screen;" />
<rect x="90.000" y="30.000" width="20.00" height="20.00" style="fill:rgb(0,160,0); mix-blend-mode: screen;" />
<rect x="120.000" y="30.000" width="20.00" height="20.00" style="fill:rgb(0,170,0); mix-blend-mode: screen;" />
<rect x="0.000" y="60.000" width="20.00" height="20.00" style="fill:rgb(0,180,0); mix-blend-mode: screen;" />
<rect x="30.000" y="60.000" width="20.00" height="20.00" style="fill:rgb(0,190,0); mix-blend-mode: screen;" />
<rect x="60.000" y="60.000" width="20.00" height="20.00" style="fill:rgb(0,200,0); mix-blend-mode: screen;" />
<rect x="90.000" y="60.000" width="20.00" height="20.00" style="fill:rgb(0,210,0); mix-blend-mode: screen;" />
<rect x="120.000" y="60.000" width="20.00" height="20.00" style="fill:rgb(0,220,0); mix-blend-mode: screen;" />
<rect x="0.000" y="90.000" width="20.00" height="20.00" style="fill:rgb(0,230,0); mix-blend-mode: screen;" />
<rect x="30.000" y="90.000" width="20.00" height="20.00" style="fill:rgb(0,240,0); mix-blend-mode: screen;" />
<rect x="60.000" y="90.000" width="20.00" height="20.00" style="fill:rgb(0,250,0); mix-blend-mode: screen;" />
<rect x="90.000" y="90.000" width="20.00" height="20.00" style="fill:rgb(0,260,0); mix-blend-mode: screen;" />
<rect x="120.000" y="90.000" width="20.00" height="20.00" style="fill:rgb(0,270,0); mix-blend-mode: screen;" />
<rect x="0.000" y="120.000" width="20.00" height="20.00" style="fill:rgb(0,280,0); mix-blend-mode: screen;" />
<rect x="30.000" y="120.000" width="20.00" height="20.00" style="fill:rgb(0,290,0); mix-blend-mode: screen;" />
<rect x="60.000" y="120.000" width="20.00" height="20.00" style="fill:rgb(0,300,0); mix-blend-mode: screen;" />
<rect x="90.000" y="120.000" width="20.00" height="20.00" style="fill:rgb(0,310,0); mix-blend-mode: screen;" />
<rect x="120.000" y="120.000" width="20.00" height="20.00" style="fill:rgb(0,320,0); mix-blend-mode: screen;" />
<rect x="0.000" y="150.000" width="20.00" height="20.00" style="fill:rgb(0,330,0); mix-blend-mode: screen;" />
<rect x="30.000" y="150.000" width="20.00" height="20.00" style="fill:rgb(0,340,0); mix-blend-mode: screen;" />
<rect x="60.000" y="150.000" width="20.00" height="20.00" style="fill:rgb(0,350,0); mix-blend-mode: screen;" />
<rect x="90.000" y="150.000" width="20.00" height="20.00" style="fill:rgb(0,360,0); mix-blend-mode: screen;" />
<rect x="120.000" y="150.000" width="20.00" height="20.00" style="fill:rgb(0,370,0); mix-blend-mode: screen;" />
<rect x="0.000" y="180.000" width="20.00" height="20.00" style="fill:rgb(0,380,0); mix-blend-mode: screen;" />
<rect x="30.000" y="180.000" width="20.00" height="20.00" style="fill:rgb(0,390,0); mix-blend-mode: screen;" />
<rect x="60.000" y="180.000" width="20.00" height="20.00" style="fill:rgb(0,400,0); mix-blend-mode: screen;" />
<rect x="90.000" y="180.000" width="20.00" height="20.00" style="fill:rgb(0,410,0); mix-blend-mode: screen;" />
<rect x="120.000" y="180.000" width="20.00" height="20.00" style="fill:rgb(0,420,0); mix-blend-mode: screen;" />
<rect x="0.000" y="210.000" width="20.00" height="20.00" style="fill:rgb(0,430,0); mix-blend-mode: screen;" />
<rect x="30.000" y="210.000" width="20.00" height="20.00" style="fill:rgb(0,440,0); mix-blend-mode: screen;" />
<rect x="60.000" y="210.000" width="20.00" height="20.00" style="fill:rgb(0,450,0); mix-blend-mode: screen;" />
<rect x="90.000" y="210.000" width="20.00" height="20.00" style="fill:rgb(0,460,0); mix-blend-mode: screen;" />
<rect x="120.000" y="210.000" width="20.00" height="20.00" style="fill:rgb(0,470,0); mix-blend-mode: screen;" />
<rect x="0.000" y="240.000" width="20.00" height="20.00" style="fill:rgb(0,480,0); mix-blend-mode: screen;" />
<rect x="30.000" y="240.000" width="20.00" height="20.00" style="fill:rgb(0,490,0); mix-blend-mode: screen;" />
<rect x="60.000" y="240.000" width="20.00" height="20.00" style="fill:rgb(0,500,0); mix-blend-mode: screen;" />
<rect x="90.000" y="240.000" width="20.00" height="20.00" style="fill:rgb(0,510,0); mix-blend-mode: screen;" />
<rect x="120.000" y="240.000" width="20.00" height="20.00" style="fill:rgb(0,520,0); mix-blend-mode: screen;" />
<rect x="0.000" y="270.000" width="20.00" height="20.00" style="fill:rgb(0,530,0); mix-blend-mode: screen;" />
<rect x="30.000" y="270.000" width="20.00" height="20.00" style="fill:rgb(0,540,0); mix-blend-mode: screen;" />
<rect x="60.000" y="270.000" width="20.00" height="20.00" style="fill:rgb(0,550,0); mix-blend-mode: screen;" />
<rect x="90.000" y="270.000" width="20.00" height="20.00" style="fill:rgb(0,560,0); mix-blend-mode: screen;" />
<rect x="120.000" y="270.000" width="20.00" height="20.00" style="fill:rgb(0,570,0); mix-blend-mode: screen;" />
</svg>