<svg width="512.00" height="512.00" xmlns="http://www.w3.org/2000/svg">
<circle cx="219.713" cy="208.000" r="32.00" style="fill:rgb(255,0,0); mix-blend-mode: screen;" />
<circle cx="164.287" cy="208.000" r="32.00" style="fill:rgb(0,255,0); mix-blend-mode: screen;" />
<circle cx="192.000" cy="160.000" r="32.00" style="fill:rgb(0,0,255); mix-blend-mode: screen;" />
<circle cx="219.713" cy="208.000" r="32.00" style="fill:rgb(255,0,0); mix-blend-mode: screen;" />
<circle cx="219.713" cy="336.000" r="32.00" style="fill:rgb(255,0,0); mix-blend-mode: screen;" />
<circle cx="164.287" cy="336.000" r="32.00" style="fill:rgb(0,255,0); mix-blend-mode: screen;" />
<circle cx="192.000" cy="288.000" r="32.00" style="fill:rgb(0,0,255); mix-blend-mode: screen;" />
<circle cx="219.713" cy="336.000" r="32.00" style="fill:rgb(255,0,0); mix-blend-mode: screen;" />
<circle cx="219.713" cy="464.000" r="32.00" style="fill:rgb(255,0,0); mix-blend-mode: screen;" />
<circle cx="164.287" cy="464.000" r="32.00" style="fill:rgb(0,255,0); mix-blend-mode: screen;" />
<circle cx="192.000" cy="416.000" r="32.00" style="fill:rgb(0,0,255); mix-blend-mode: screen;" />
<circle cx="219.713" cy="464.000" r="32.00" style="fill:rgb(255,0,0); mix-blend-mode: screen;" />
<circle cx="347.713" cy="208.000" r="32.00" style="fill:rgb(255,0,0); mix-blend-mode: screen;" />
<circle cx="292.287" cy="208.000" r="32.00" style="fill:rgb(0,255,0); mix-blend-mode: screen;" />
<circle cx="320.000" cy="160.000" r="32.00" style="fill:rgb(0,0,255); mix-blend-mode: screen;" />
<circle cx="347.713" cy="208.000" r="32.00" style="fill:rgb(255,0,0); mix-blend-mode: screen;" />
<circle cx="347.713" cy="336.000" r="32.00" style="fill:rgb(255,0,0); mix-blend-mode: screen;" />
<circle cx="292.287" cy="336.000" r="32.00" style="fill:rgb(0,255,0); mix-blend-mode: screen;" />
<circle cx="320.000" cy="288.000" r="32.00" style="fill:rgb(0,0,255); mix-blend-mode: screen;" />
<circle cx="347.713" cy="336.000" r="32.00" style="fill:rgb(255,0,0); mix-blend-mode: screen;" />
<circle cx="347.713" cy="464.000" r="32.00" style="fill:rgb(255,0,0); mix-blend-mode: screen;" />
<circle cx="292.287" cy="464.000" r="32.00" style="fill:rgb(0,255,0); mix-blend-mode: screen;" />
<circle cx="320.000" cy="416.000" r="32.00" style="fill:rgb(0,0,255); mix-blend-mode: screen;" />
<circle cx="347.713" cy="464.000" r="32.00" style="fill:rgb(255,0,0); mix-blend-mode: screen;" />
<circle cx="475.713" cy="208.000" r="32.00" style="fill:rgb(255,0,0); mix-blend-mode: screen;" />
<circle cx="420.287" cy="208.000" r="32.00" style="fill:rgb(0,255,0); mix-blend-mode: screen;" />
<circle cx="448.000" cy="160.000" r="32.00" style="fill:rgb(0,0,255); mix-blend-mode: screen;" />
<circle cx="475.713" cy="208.000" r="32.00" style="fill:rgb(255,0,0); mix-blend-mode: screen;" />
<circle cx="475.713" cy="336.000" r="32.00" style="fill:rgb(255,0,0); mix-blend-mode: screen;" />
<circle cx="420.287" cy="336.000" r="32.00" style="fill:rgb(0,255,0); mix-blend-mode: screen;" />
<circle cx="448.000" cy="288.000" r="32.00" style="fill:rgb(0,0,255); mix-blend-mode: screen;" />
<circle cx="475.713" cy="336.000" r="32.00" style="fill:rgb(255,0,0); mix-blend-mode: screen;" />
<circle cx="475.713" cy="464.000" r="32.00" style="fill:rgb(255,0,0); mix-blend-mode: screen;" />
<circle cx="420.287" cy="464.000" r="32.00" style="fill:rgb(0,255,0); mix-blend-mode: screen;" />
<circle cx="448.000" cy="416.000" r="32.00" style="fill:rgb(0,0,255); mix-blend-mode: screen;" />
<circle cx="475.713" cy="464.000" r="32.00" style="fill:rgb(255,0,0); mix-blend-mode: screen;" />
</svg>