<svg width="512.00" height="512.00" xmlns="http://www.w3.org/2000/svg">
<circle cx="128.000" cy="256.000" r="2.00" style="fill:rgb(255,0,0); mix-blend-mode: screen;" />
<circle cx="130.560" cy="260.019" r="2.00" style="fill:rgb(0,255,0); mix-blend-mode: screen;" />
<circle cx="133.120" cy="264.021" r="2.00" style="fill:rgb(0,0,255); mix-blend-mode: screen;" />
<circle cx="135.680" cy="267.992" r="2.00" style="fill:rgb(255,0,0); mix-blend-mode: screen;" />
<circle cx="138.240" cy="271.916" r="2.00" style="fill:rgb(0,255,0); mix-blend-mode: screen;" />
<circle cx="140.800" cy="275.777" r="2.00" style="fill:rgb(0,0,255); mix-blend-mode: screen;" />
<circle cx="143.360" cy="279.560" r="2.00" style="fill:rgb(255,0,0); mix-blend-mode: screen;" />
<circle cx="145.920" cy="283.250" r="2.00" style="fill:rgb(0,255,0); mix-blend-mode: screen;" />
<circle cx="148.480" cy="286.832" r="2.00" style="fill:rgb(0,0,255); mix-blend-mode: screen;" />
<circle cx="151.040" cy="290.293" r="2.00" style="fill:rgb(255,0,0); mix-blend-mode: screen;" />
<circle cx="153.600" cy="293.618" r="2.00" style="fill:rgb(0,255,0); mix-blend-mode: screen;" />
<circle cx="156.160" cy="296.795" r="2.00" style="fill:rgb(0,0,255); mix-blend-mode: screen;" />
<circle cx="158.720" cy="299.811" r="2.00" style="fill:rgb(255,0,0); mix-blend-mode: screen;" />
<circle cx="161.280" cy="302.654" r="2.00" style="fill:rgb(0,255,0); mix-blend-mode: screen;" />
<circle cx="163.840" cy="305.313" r="2.00" style="fill:rgb(0,0,255); mix-blend-mode: screen;" />
<circle cx="166.400" cy="307.777" r="2.00" style="fill:rgb(255,0,0); mix-blend-mode: screen;" />
<circle cx="168.960" cy="310.037" r="2.00" style="fill:rgb(0,255,0); mix-blend-mode: screen;" />
<circle cx="171.520" cy="312.084" r="2.00" style="fill:rgb(0,0,255); mix-blend-mode: screen;" />
<circle cx="174.080" cy="313.909" r="2.00" style="fill:rgb(255,0,0); mix-blend-mode: screen;" />
<circle cx="176.640" cy="315.506" r="2.00" style="fill:rgb(0,255,0); mix-blend-mode: screen;" />
<circle cx="179.200" cy="316.868" r="2.00" style="fill:rgb(0,0,255); mix-blend-mode: screen;" />
<circle cx="181.760" cy="317.989" r="2.00" style="fill:rgb(255,0,0); mix-blend-mode: screen;" />
<circle cx="184.320" cy="318.866" r="2.00" style="fill:rgb(0,255,0); mix-blend-mode: screen;" />
<circle cx="186.880" cy="319.495" r="2.00" style="fill:rgb(0,0,255); mix-blend-mode: screen;" />
<circle cx="189.440" cy="319.874" r="2.00" style="fill:rgb(255,0,0); mix-blend-mode: screen;" />
<circle cx="192.000" cy="320.000" r="2.00" style="fill:rgb(0,255,0); mix-blend-mode: screen;" />
<circle cx="194.560" cy="319.874" r="2.00" style="fill:rgb(0,0,255); mix-blend-mode: screen;" />
<circle cx="197.120" cy="319.495" r="2.00" style="fill:rgb(255,0,0); mix-blend-mode: screen;" />
<circle cx="199.680" cy="318.866" r="2.00" style="fill:rgb(0,255,0); mix-blend-mode: screen;" />
<circle cx="202.240" cy="317.989" r="2.00" style="fill:rgb(0,0,255); mix-blend-mode: screen;" />
<circle cx="204.800" cy="316.868" r="2.00" style="fill:rgb(255,0,0); mix-blend-mode: screen;" />
<circle cx="207.360" cy="315.506" r="2.00" style="fill:rgb(0,255,0); mix-blend-mode: screen;" />
<circle cx="209.920" cy="313.909" r="2.00" style="fill:rgb(0,0,255); mix-blend-mode: screen;" />
<circle cx="212.480" cy="312.084" r="2.00" style="fill:rgb(255,0,0); mix-blend-mode: screen;" />
<circle cx="215.040" cy="310.037" r="2.00" style="fill:rgb(0,255,0); mix-blend-mode: screen;" />
<circle cx="217.600" cy="307.777" r="2.00" style="fill:rgb(0,0,255); mix-blend-mode: screen;" />
<circle cx="220.160" cy="305.313" r="2.00" style="fill:rgb(255,0,0); mix-blend-mode: screen;" />
<circle cx="222.720" cy="302.654" r="2.00" style="fill:rgb(0,255,0); mix-blend-mode: screen;" />
<circle cx="225.280" cy="299.811" r="2.00" style="fill:rgb(0,0,255); mix-blend-mode: screen;" />
<circle cx="227.840" cy="296.795" r="2.00" style="fill:rgb(255,0,0); mix-blend-mode: screen;" />
<circle cx="230.400" cy="293.618" r="2.00" style="fill:rgb(0,255,0); mix-blend-mode: screen;" />
<circle cx="232.960" cy="290.293" r="2.00" style="fill:rgb(0,0,255); mix-blend-mode: screen;" />
<circle cx="235.520" cy="286.832" r="2.00" style="fill:rgb(255,0,0); mix-blend-mode: screen;" />
<circle cx="238.080" cy="283.250" r="2.00" style="fill:rgb(0,255,0); mix-blend-mode: screen;" />
<circle cx="240.640" cy="279.560" r="2.00" style="fill:rgb(0,0,255); mix-blend-mode: screen;" />
<circle cx="243.200" cy="275.777" r="2.00" style="fill:rgb(255,0,0); mix-blend-mode: screen;" />
<circle cx="245.760" cy="271.916" r="2.00" style="fill:rgb(0,255,0); mix-blend-mode: screen;" />
<circle cx="248.320" cy="267.992" r="2.00" style="fill:rgb(0,0,255); mix-blend-mode: screen;" />
<circle cx="250.880" cy="264.021" r="2.00" style="fill:rgb(255,0,0); mix-blend-mode: screen;" />
<circle cx="253.440" cy="260.019" r="2.00" style="fill:rgb(0,255,0); mix-blend-mode: screen;" />
<circle cx="256.000" cy="256.000" r="2.00" style="fill:rgb(0,0,255); mix-blend-mode: screen;" />
<circle cx="258.560" cy="251.981" r="2.00" style="fill:rgb(255,0,0); mix-blend-mode: screen;" />
<circle cx="261.120" cy="247.979" r="2.00" style="fill:rgb(0,255,0); mix-blend-mode: screen;" />
<circle cx="263.680" cy="244.008" r="2.00" style="fill:rgb(0,0,255); mix-blend-mode: screen;" />
<circle cx="266.240" cy="240.084" r="2.00" style="fill:rgb(255,0,0); mix-blend-mode: screen;" />
<circle cx="268.800" cy="236.223" r="2.00" style="fill:rgb(0,255,0); mix-blend-mode: screen;" />
<circle cx="271.360" cy="232.440" r="2.00" style="fill:rgb(0,0,255); mix-blend-mode: screen;" />
<circle cx="273.920" cy="228.750" r="2.00" style="fill:rgb(255,0,0); mix-blend-mode: screen;" />
<circle cx="276.480" cy="225.168" r="2.00" style="fill:rgb(0,255,0); mix-blend-mode: screen;" />
<circle cx="279.040" cy="221.707" r="2.00" style="fill:rgb(0,0,255); mix-blend-mode: screen;" />
<circle cx="281.600" cy="218.382" r="2.00" style="fill:rgb(255,0,0); mix-blend-mode: screen;" />
<circle cx="284.160" cy="215.205" r="2.00" style="fill:rgb(0,255,0); mix-blend-mode: screen;" />
<circle cx="286.720" cy="212.189" r="2.00" style="fill:rgb(0,0,255); mix-blend-mode: screen;" />
<circle cx="289.280" cy="209.346" r="2.00" style="fill:rgb(255,0,0); mix-blend-mode: screen;" />
<circle cx="291.840" cy="206.687" r="2.00" style="fill:rgb(0,255,0); mix-blend-mode: screen;" />
<circle cx="294.400" cy="204.223" r="2.00" style="fill:rgb(0,0,255); mix-blend-mode: screen;" />
<circle cx="296.960" cy="201.963" r="2.00" style="fill:rgb(255,0,0); mix-blend-mode: screen;" />
<circle cx="299.520" cy="199.916" r="2.00" style="fill:rgb(0,255,0); mix-blend-mode: screen;" />
<circle cx="302.080" cy="198.091" r="2.00" style="fill:rgb(0,0,255); mix-blend-mode: screen;" />
<circle cx="304.640" cy="196.494" r="2.00" style="fill:rgb(255,0,0); mix-blend-mode: screen;" />
<circle cx="307.200" cy="195.132" r="2.00" style="fill:rgb(0,255,0); mix-blend-mode: screen;" />
<circle cx="309.760" cy="194.011" r="2.00" style="fill:rgb(0,0,255); mix-blend-mode: screen;" />
<circle cx="312.320" cy="193.134" r="2.00" style="fill:rgb(255,0,0); mix-blend-mode: screen;" />
<circle cx="314.880" cy="192.505" r="2.00" style="fill:rgb(0,255,0); mix-blend-mode: screen;" />
<circle cx="317.440" cy="192.126" r="2.00" style="fill:rgb(0,0,255); mix-blend-mode: screen;" />
<circle cx="320.000" cy="192.000" r="2.00" style="fill:rgb(255,0,0); mix-blend-mode: screen;" />
<circle cx="322.560" cy="192.126" r="2.00" style="fill:rgb(0,255,0); mix-blend-mode: screen;" />
<circle cx="325.120" cy="192.505" r="2.00" style="fill:rgb(0,0,255); mix-blend-mode: screen;" />
<circle cx="327.680" cy="193.134" r="2.00" style="fill:rgb(255,0,0); mix-blend-mode: screen;" />
<circle cx="330.240" cy="194.011" r="2.00" style="fill:rgb(0,255,0); mix-blend-mode: screen;" />
<circle cx="332.800" cy="195.132" r="2.00" style="fill:rgb(0,0,255); mix-blend-mode: screen;" />
<circle cx="335.360" cy="196.494" r="2.00" style="fill:rgb(255,0,0); mix-blend-mode: screen;" />
<circle cx="337.920" cy="198.091" r="2.00" style="fill:rgb(0,255,0); mix-blend-mode: screen;" />
<circle cx="340.480" cy="199.916" r="2.00" style="fill:rgb(0,0,255); mix-blend-mode: screen;" />
<circle cx="343.040" cy="201.963" r="2.00" style="fill:rgb(255,0,0); mix-blend-mode: screen;" />
<circle cx="345.600" cy="204.223" r="2.00" style="fill:rgb(0,255,0); mix-blend-mode: screen;" />
<circle cx="348.160" cy="206.687" r="2.00" style="fill:rgb(0,0,255); mix-blend-mode: screen;" />
<circle cx="350.720" cy="209.346" r="2.00" style="fill:rgb(255,0,0); mix-blend-mode: screen;" />
<circle cx="353.280" cy="212.189" r="2.00" style="fill:rgb(0,255,0); mix-blend-mode: screen;" />
<circle cx="355.840" cy="215.205" r="2.00" style="fill:rgb(0,0,255); mix-blend-mode: screen;" />
<circle cx="358.400" cy="218.382" r="2.00" style="fill:rgb(255,0,0); mix-blend-mode: screen;" />
<circle cx="360.960" cy="221.707" r="2.00" style="fill:rgb(0,255,0); mix-blend-mode: screen;" />
<circle cx="363.520" cy="225.168" r="2.00" style="fill:rgb(0,0,255); mix-blend-mode: screen;" />
<circle cx="366.080" cy="228.750" r="2.00" style="fill:rgb(255,0,0); mix-blend-mode: screen;" />
<circle cx="368.640" cy="232.440" r="2.00" style="fill:rgb(0,255,0); mix-blend-mode: screen;" />
<circle cx="371.200" cy="236.223" r="2.00" style="fill:rgb(0,0,255); mix-blend-mode: screen;" />
<circle cx="373.760" cy="240.084" r="2.00" style="fill:rgb(255,0,0); mix-blend-mode: screen;" />
<circle cx="376.320" cy="244.008" r="2.00" style="fill:rgb(0,255,0); mix-blend-mode: screen;" />
<circle cx="378.880" cy="247.979" r="2.00" style="fill:rgb(0,0,255); mix-blend-mode: screen;" />
<circle cx="381.440" cy="251.981" r="2.00" style="fill:rgb(255,0,0); mix-blend-mode: screen;" />
</svg>