<svg width="512.00" height="512.00" xmlns="http://www.w3.org/2000/svg">
<circle cx="384.000" cy="256.000" r="32.00" style="fill:rgb(255,0,0); mix-blend-mode: screen;" />
<circle cx="381.541" cy="280.972" r="32.00" style="fill:rgb(255,47,0); mix-blend-mode: screen;" />
<circle cx="374.257" cy="304.984" r="32.00" style="fill:rgb(255,94,0); mix-blend-mode: screen;" />
<circle cx="362.428" cy="327.113" r="32.00" style="fill:rgb(255,140,0); mix-blend-mode: screen;" />
<circle cx="346.510" cy="346.510" r="32.00" style="fill:rgb(255,191,0); mix-blend-mode: screen;" />
<circle cx="327.113" cy="362.428" r="32.00" style="fill:rgb(255,238,0); mix-blend-mode: screen;" />
<circle cx="304.984" cy="374.257" r="32.00" style="fill:rgb(225,255,0); mix-blend-mode: screen;" />
<circle cx="280.972" cy="381.541" r="32.00" style="fill:rgb(179,255,0); mix-blend-mode: screen;" />
<circle cx="256.000" cy="384.000" r="32.00" style="fill:rgb(128,255,0); mix-blend-mode: screen;" />
<circle cx="231.028" cy="381.541" r="32.00" style="fill:rgb(81,255,0); mix-blend-mode: screen;" />
<circle cx="207.017" cy="374.257" r="32.00" style="fill:rgb(34,255,0); mix-blend-mode: screen;" />
<circle cx="184.887" cy="362.428" r="32.00" style="fill:rgb(0,255,13); mix-blend-mode: screen;" />
<circle cx="165.490" cy="346.510" r="32.00" style="fill:rgb(0,255,64); mix-blend-mode: screen;" />
<circle cx="149.572" cy="327.113" r="32.00" style="fill:rgb(0,255,111); mix-blend-mode: screen;" />
<circle cx="137.743" cy="304.983" r="32.00" style="fill:rgb(0,255,157); mix-blend-mode: screen;" />
<circle cx="130.459" cy="280.972" r="32.00" style="fill:rgb(0,255,204); mix-blend-mode: screen;" />
<circle cx="128.000" cy="256.000" r="32.00" style="fill:rgb(0,255,255); mix-blend-mode: screen;" />
<circle cx="130.459" cy="231.028" r="32.00" style="fill:rgb(0,208,255); mix-blend-mode: screen;" />
<circle cx="137.743" cy="207.017" r="32.00" style="fill:rgb(0,162,255); mix-blend-mode: screen;" />
<circle cx="149.572" cy="184.887" r="32.00" style="fill:rgb(0,115,255); mix-blend-mode: screen;" />
<circle cx="165.490" cy="165.490" r="32.00" style="fill:rgb(0,64,255); mix-blend-mode: screen;" />
<circle cx="184.887" cy="149.572" r="32.00" style="fill:rgb(0,17,255); mix-blend-mode: screen;" />
<circle cx="207.017" cy="137.743" r="32.00" style="fill:rgb(30,0,255); mix-blend-mode: screen;" />
<circle cx="231.028" cy="130.459" r="32.00" style="fill:rgb(77,0,255); mix-blend-mode: screen;" />
<circle cx="256.000" cy="128.000" r="32.00" style="fill:rgb(128,0,255); mix-blend-mode: screen;" />
<circle cx="280.972" cy="130.459" r="32.00" style="fill:rgb(174,0,255); mix-blend-mode: screen;" />
<circle cx="304.984" cy="137.743" r="32.00" style="fill:rgb(221,0,255); mix-blend-mode: screen;" />
<circle cx="327.113" cy="149.572" r="32.00" style="fill:rgb(255,0,242); mix-blend-mode: screen;" />
<circle cx="346.510" cy="165.490" r="32.00" style="fill:rgb(255,0,191); mix-blend-mode: screen;" />
<circle cx="362.428" cy="184.887" r="32.00" style="fill:rgb(255,0,144); mix-blend-mode: screen;" />
<circle cx="374.257" cy="207.017" r="32.00" style="fill:rgb(255,0,98); mix-blend-mode: screen;" />
<circle cx="381.541" cy="231.028" r="32.00" style="fill:rgb(255,0,51); mix-blend-mode: screen;" />
<circle cx="384.000" cy="256.000" r="32.00" style="fill:rgb(255,0,0); mix-blend-mode: screen;" />
</svg>