<svg width="1500.00" height="500.00" xmlns="http://www.w3.org/2000/svg">
<rect x="0.000" y="0.000" width="50.00" height="50.00" style="fill:rgb(0,80,0); mix-blend-mode: screen;" />
<rect x="60.000" y="0.000" width="50.00" height="50.00" style="fill:rgb(0,90,0); mix-blend-mode: screen;" />
<rect x="120.000" y="0.000" width="50.00" height="50.00" style="fill:rgb(0,100,0); mix-blend-mode: screen;" />
<rect x="180.000" y="0.000" width="50.00" height="50.00" style="fill:rgb(0,110,0); mix-blend-mode: screen;" />
<rect x="240.000" y="0.000" width="50.00" height="50.00" style="fill:rgb(0,120,0); mix-blend-mode: screen;" />
<rect x="300.000" y="0.000" width="50.00" height="50.00" style="fill:rgb(0,130,0); mix-blend-mode: screen;" />
<rect x="360.000" y="0.000" width="50.00" height="50.00" style="fill:rgb(0,140,0); mix-blend-mode: screen;" />
<rect x="420.000" y="0.000" width="50.00" height="50.00" style="fill:rgb(0,150,0); mix-blend-mode: screen;" />
<rect x="480.000" y="0.000" width="50.00" height="50.00" style="fill:rgb(0,160,0); mix-blend-mode: screen;" />
<rect x="540.000" y="0.000" width="50.00" height="50.00" style="fill:rgb(0,170,0); mix-blend-mode: screen;" />
<rect x="600.000" y="0.000" width="50.00" height="50.00" style="fill:rgb(0,180,0); mix-blend-mode: screen;" />
<rect x="660.000" y="0.000" width="50.00" height="50.00" style="fill:rgb(0,190,0); mix-blend-mode: screen;" />
<rect x="720.000" y="0.000" width="50.00" height="50.00" style="fill:rgb(0,200,0); mix-blend-mode: screen;" />
<rect x="780.000" y="0.000" width="50.00" height="50.00" style="fill:rgb(0,210,0); mix-blend-mode: screen;" />
<rect x="840.000" y="0.000" width="50.00" height="50.00" style="fill:rgb(0,220,0); mix-blend-mode: screen;" />
<rect x="900.000" y="0.000" width="50.00" height="50.00" style="fill:rgb(0,230,0); mix-blend-mode: screen;" />
<rect x="960.000" y="0.000" width="50.00" height="50.00" style="fill:rgb(0,240,0); mix-blend-mode: screen;" />
<rect x="1020.000" y="0.000" width="50.00" height="50.00" style="fill:rgb(0,250,0); mix-blend-mode: screen;" />
<rect x="1080.000" y="0.000" width="50.00" height="50.00" style="fill:rgb(0,260,0); mix-blend-mode: screen;" />
<rect x="1140.000" y="0.000" width="50.00" height="50.00" style="fill:rgb(0,270,0); mix-blend-mode: screen;" />
<rect x="1200.000" y="0.000" width="50.00" height="50.00" style="fill:rgb(0,280,0); mix-blend-mode: screen;" />
<rect x="1260.000" y="0.000" width="50.00" height="50.00" style="fill:rgb(0,290,0); mix-blend-mode: screen;" />
<rect x="1320.000" y="0.000" width="50.00" height="50.00" style="fill:rgb(0,300,0); mix-blend-mode: screen;" />
<rect x="1380.000" y="0.000" width="50.00" height="50.00" style="fill:rgb(0,310,0); mix-blend-mode: screen;" />
<rect x="1440.000" y="0.000" width="50.00" height="50.00" style="fill:rgb(0,320,0); mix-blend-mode: screen;" />
<rect x="1500.000" y="0.000" width="50.00" height="50.00" style="fill:rgb(0,330,0); mix-blend-mode: screen;" />
<rect x="1560.000" y="0.000" width="50.00" height="50.00" style="fill:rgb(0,340,0); mix-blend-mode: screen;" />
<rect x="1620.000" y="0.000" width="50.00" height="50.00" style="fill:rgb(0,350,0); mix-blend-mode: screen;" />
<rect x="1680.000" y="0.000" width="50.00" height="50.00" style="fill:rgb(0,360,0); mix-blend-mode: screen;" />
<rect x="1740.000" y="0.000" width="50.00" height="50.00" style="fill:rgb(0,370,0); mix-blend-mode: screen;" />
</svg>